<svg width="24" height="25" viewBox="0 0 24 25" fill="none" xmlns="http://www.w3.org/2000/svg">
<g clip-path="url(#clip0_403_3340)">
<path d="M18 6.5H16C16 4.29 14.21 2.5 12 2.5C9.79 2.5 8 4.29 8 6.5H6C4.9 6.5 4 7.4 4 8.5V20.5C4 21.6 4.9 22.5 6 22.5H18C19.1 22.5 20 21.6 20 20.5V8.5C20 7.4 19.1 6.5 18 6.5ZM12 4.5C13.1 4.5 14 5.4 14 6.5H10C10 5.4 10.9 4.5 12 4.5ZM18 20.5H6V8.5H8V10.5C8 11.05 8.45 11.5 9 11.5C9.55 11.5 10 11.05 10 10.5V8.5H14V10.5C14 11.05 14.45 11.5 15 11.5C15.55 11.5 16 11.05 16 10.5V8.5H18V20.5Z" fill="#242424"/>
</g>
<defs>
<clipPath id="clip0_403_3340">
<rect width="24" height="24" fill="white" transform="translate(0 0.5)"/>
</clipPath>
</defs>
</svg>
