<svg width="24" height="25" viewBox="0 0 24 25" fill="none" xmlns="http://www.w3.org/2000/svg">
<g clip-path="url(#clip0_403_3135)">
<path d="M16.5 3.5C14.76 3.5 13.09 4.31 12 5.59C10.91 4.31 9.24 3.5 7.5 3.5C4.42 3.5 2 5.92 2 9C2 12.78 5.4 15.86 10.55 20.54L12 21.85L13.45 20.53C18.6 15.86 22 12.78 22 9C22 5.92 19.58 3.5 16.5 3.5ZM12.1 19.05L12 19.15L11.9 19.05C7.14 14.74 4 11.89 4 9C4 7 5.5 5.5 7.5 5.5C9.04 5.5 10.54 6.49 11.07 7.86H12.94C13.46 6.49 14.96 5.5 16.5 5.5C18.5 5.5 20 7 20 9C20 11.89 16.86 14.74 12.1 19.05Z" fill="#242424"/>
</g>
<defs>
<clipPath id="clip0_403_3135">
<rect width="24" height="24" fill="white" transform="translate(0 0.5)"/>
</clipPath>
</defs>
</svg>
